<?xml version="1.0" encoding="UTF-8" standalone="no"?>
<svg style="enable-background:new 0 0 512.853 512.853" xmlns="http://www.w3.org/2000/svg" xml:space="preserve" viewBox="0 0 512.853 512.853" height="512px" width="512px" version="1.1" y="0px" x="0px" xmlns:xlink="http://www.w3.org/1999/xlink">
<g transform="translate(1 1)">
		<g fill="#1a237e">
			<path d="m188 409c-9.39 0-17.1 7.68-17.1 17.1s7.68 17.1 17.1 17.1 17.1-7.68 17.1-17.1-8-17-17-17z"/>
			<path d="m409 409c-9.39 0-17.1 7.68-17.1 17.1s7.68 17.1 17.1 17.1 17.1-7.68 17.1-17.1-7-17-17-17z"/>
			<path d="m384 349h-17.1c-5.12 0-8.53 3.41-8.53 8.53s3.41 8.53 8.53 8.53h17.1c5.12 0 8.53-3.41 8.53-8.53-1-5-4-9-9-9z"/>
			<path d="m256 264h-120c-5.12 0-8.53 3.41-8.53 8.53s3.41 8.53 8.53 8.53h119c5.12 0 8.53-3.41 8.53-8.53s-3-9-8-9z"/>
			<path d="m93.7 179c28.2 0 51.2-23 51.2-51.2s-23-51.2-51.2-51.2-51.2 23-51.2 51.2c-0.1 28 23 51 51.1 51zm0-85.7c18.8 0 34.1 15.4 34.1 34.1s-15.4 34.1-34.1 34.1c-18.8 0-34.1-15.4-34.1-34.1s15.1-33.7 33.9-33.7z"/>
			<path d="m501 332l-32.9-13.5c-0.142-0.218-0.293-0.427-0.455-0.627l-21.2-84.8c-2.56-11.9-12.8-19.6-24.7-19.6h-80.2v-25.6c0-9.39-7.68-17.1-17.1-17.1h-150c7.4-14.6 12.5-28.4 12.5-47.8 0-49.5-41.8-89.6-93.9-89.6s-93.9 40.1-94.7 89.6c0 23.9 7.68 39.3 17.9 58 1.71 2.56 3.41 5.97 5.12 9.39 23.4 45.2 57.4 100 63.1 110v116c0 9.39 7.68 17.1 17.1 17.1h34.9c4.1 24.1 25.2 42.7 50.5 42.7s46.4-18.5 50.5-42.7h121c4.1 24.1 25.2 42.7 50.5 42.7s46.4-18.5 50.5-42.7h34.9c9.39 0 17.1-7.68 17.1-17.1v-69.1c0-4-4-10-11-13zm-177-111v8.53c0 42.7-34.1 76.8-76.8 76.8h-145v-5.97c4.89-7.95 23.4-38.3 41.6-70.8h129c5.12 0 8.53-3.41 8.53-8.53s-3.41-8.53-8.53-8.53h-120c3.93-7.24 7.73-14.4 11.2-21.3l1.39-3.48c0.147-0.264 0.293-0.527 0.44-0.787h159v34zm-291-47c-9.39-17.9-16.2-30.7-16.2-50.3 0-40.1 34.1-72.5 76.8-72.5s76.8 32.4 76.8 72.5c0 19.6-6.83 31.6-16.2 50.3-1.71 2.56-3.41 5.97-5.12 9.39-15.9 31.1-37.9 68.1-50.9 90.4-1.66 2.78-3.2 5.33-4.58 7.62-12-20.5-37.5-62.3-55.4-98-1.6-4-3.3-6-5-9zm155 286c-18.8 0-34.1-15.4-34.1-34.1 0-18.8 15.4-34.1 34.1-34.1 18.8 0 34.1 15.4 34.1 34.1 0 19-16 34-34 34zm221 0c-18.8 0-34.1-15.4-34.1-34.1 0-18.8 15.4-34.1 34.1-34.1 18.8 0 34.1 15.4 34.1 34.1 1 19-15 34-34 34zm86-42h-34.9c-2.88-17-14.2-31.2-29.4-38.1-0.338-0.155-0.674-0.314-1.02-0.462-0.214-0.092-0.432-0.175-0.648-0.264-0.553-0.229-1.11-0.453-1.67-0.662-0.152-0.056-0.306-0.108-0.459-0.163-0.625-0.226-1.26-0.442-1.89-0.644-0.138-0.044-0.276-0.085-0.415-0.127-0.648-0.199-1.3-0.387-1.96-0.56-0.146-0.038-0.292-0.076-0.439-0.113-0.648-0.164-1.3-0.316-1.96-0.455-0.166-0.035-0.331-0.071-0.497-0.104-0.636-0.128-1.28-0.242-1.92-0.346-0.191-0.031-0.381-0.064-0.573-0.093-0.621-0.093-1.25-0.17-1.88-0.24-0.213-0.024-0.425-0.052-0.639-0.074-0.629-0.062-1.26-0.107-1.9-0.146-0.21-0.013-0.417-0.033-0.628-0.043-0.837-0.041-1.68-0.065-2.53-0.065-0.849 0-1.69 0.024-2.53 0.065-0.21 0.01-0.418 0.03-0.628 0.043-0.636 0.039-1.27 0.084-1.9 0.146-0.214 0.021-0.426 0.05-0.639 0.074-0.629 0.07-1.26 0.148-1.88 0.24-0.192 0.029-0.382 0.062-0.574 0.093-0.645 0.104-1.28 0.218-1.92 0.345-0.167 0.034-0.332 0.069-0.498 0.104-0.658 0.139-1.31 0.291-1.96 0.455-0.146 0.037-0.293 0.074-0.439 0.113-0.66 0.174-1.31 0.361-1.96 0.561-0.138 0.042-0.276 0.083-0.414 0.127-0.638 0.202-1.27 0.418-1.89 0.644-0.152 0.055-0.305 0.107-0.457 0.163-0.564 0.21-1.12 0.434-1.68 0.664-0.215 0.089-0.432 0.172-0.645 0.263-0.343 0.148-0.68 0.308-1.02 0.463-15.2 6.93-26.6 21.1-29.4 38.1h-120c-2.88-17-14.2-31.2-29.4-38.1-0.34-0.156-0.677-0.316-1.02-0.464-0.213-0.091-0.43-0.174-0.645-0.263-0.554-0.229-1.11-0.453-1.68-0.664-0.151-0.056-0.305-0.108-0.457-0.163-0.626-0.226-1.26-0.442-1.89-0.644-0.137-0.043-0.276-0.084-0.414-0.127-0.648-0.199-1.3-0.387-1.96-0.561-0.146-0.038-0.292-0.076-0.439-0.113-0.648-0.164-1.3-0.316-1.96-0.455-0.166-0.035-0.331-0.071-0.497-0.104-0.636-0.128-1.28-0.242-1.92-0.346-0.191-0.031-0.381-0.064-0.573-0.093-0.621-0.093-1.25-0.17-1.88-0.24-0.213-0.024-0.425-0.052-0.639-0.074-0.629-0.062-1.26-0.107-1.9-0.146-0.21-0.013-0.417-0.033-0.628-0.043-0.837-0.041-1.68-0.065-2.53-0.065-0.849 0-1.69 0.024-2.53 0.065-0.21 0.01-0.418 0.03-0.628 0.043-0.636 0.039-1.27 0.084-1.9 0.146-0.214 0.021-0.426 0.05-0.639 0.074-0.629 0.07-1.26 0.148-1.88 0.24-0.192 0.029-0.382 0.062-0.573 0.093-0.645 0.104-1.29 0.218-1.92 0.346-0.166 0.033-0.332 0.069-0.497 0.104-0.659 0.139-1.31 0.291-1.96 0.455-0.146 0.037-0.293 0.074-0.439 0.113-0.66 0.174-1.31 0.361-1.96 0.56-0.138 0.042-0.277 0.083-0.415 0.127-0.637 0.202-1.27 0.418-1.89 0.644-0.153 0.055-0.307 0.107-0.459 0.163-0.563 0.21-1.12 0.433-1.67 0.662-0.216 0.089-0.434 0.172-0.648 0.264-0.342 0.148-0.678 0.307-1.02 0.462-15.3 6.93-26.6 21.1-29.4 38.1h-34.9v-93.9h146c52.1 0 93.9-41.8 93.9-93v-0.853h80c4.27 0 7.68 3.41 8.53 6.83l19.4 78.5h-63c-5.97 0-11.1-5.12-11.1-11.1v-41c0-5.12-3.41-8.53-8.53-8.53s-8.53 3.41-8.53 8.53v40.1c0 15.4 12.8 28.2 28.2 28.2h70.8l37.5 14.5v72z"/>
		</g>
</g>
</svg>
