<?xml version="1.0" encoding="UTF-8" standalone="no"?>
<svg style="enable-background:new 0 0 512 512" xmlns="http://www.w3.org/2000/svg" xml:space="preserve" viewBox="0 0 512 512" height="512px" width="512px" version="1.1" y="0px" x="0px" xmlns:xlink="http://www.w3.org/1999/xlink">
		<path d="m462 501l-36-492-0.014-0.014c-0.076-1.07-0.308-2.14-0.731-3.17-2-3.33-5-5.82-9-5.82h-319c-4.11 0-7.82 2.47-9.41 6.26-0.428 1.02-0.665 2.09-0.747 3.15l-0.015 0.015-37.3 492c-0.213 2.83 0.762 5.62 2.69 7.7s4.6 3 7.5 3h392c2.84 0 5.55-1.18 7.48-3.26 3-2 4-5 3-8zm-55-468l2.34 33.6-18-17.9 16-15.7zm-16-12.8l-21.3 21.1c-1.92 1.91-3.01 4.52-3.01 7.23 0 2.72 1.08 5.32 3.01 7.23l35.3 35.1h-298l35.3-35.1c3.98-3.96 4.01-10.4 0.071-14.4l-20.9-21.2h270zm-286 12.9l15.1 15.4-17.6 17.5 3-32.9zm-34.2 459l28.7-380h313l28.7 380h-370z" fill="#1a237e"/>
		<path d="m177 327c-4.76-3-11.1-1.58-14.1 3.19l-2.05 3.26c-3 4.76-1.58 11.1 3.19 14.1 1.69 1.06 3.57 1.57 5.43 1.57 3.38 0 6.7-1.68 8.64-4.76l2.05-3.26c3-5 2-11-3-14z" fill="#1a237e"/>
		<path d="m371 365l-52.5-83.2 15 3.31c5.49 1.21 10.9-2.26 12.2-7.76 1.21-5.5-2.26-10.9-7.76-12.2l-39.1-8.62c-5.49-1.21-10.9 2.26-12.2 7.76l-8.62 39.1c-1.21 5.5 2.26 10.9 7.76 12.2 0.74 0.163 1.48 0.242 2.21 0.242 4.68 0 8.9-3.24 9.95-8l3.32-15 42.6 67.5h-29.9c-5.63 0-10.2 4.57-10.2 10.2s4.57 10.2 10.2 10.2h48.4c3.72 0 7.14-2.02 8.93-5.27 3-3 3-7 1-10z" fill="#1a237e"/>
		<path d="m284 363l-28.3-28.3c-3.98-3.98-10.4-3.98-14.4 0-3.98 3.98-3.98 10.4 0 14.4l11.1 11.1h-103c-5.63 0-10.2 4.57-10.2 10.2s4.57 10.2 10.2 10.2h102l-10.6 10.6c-3.98 3.98-3.98 10.4 0 14.4 1.99 1.99 4.6 2.99 7.21 2.99s5.22-0.995 7.21-2.99l28.3-28.3c1.91-1.91 2.99-4.51 2.99-7.21s0-5-2-7z" fill="#1a237e"/>
		<path d="m288 234l-23.2-37.5c-1.85-2.99-5.11-4.82-8.63-4.83h-0.045c-3.5 0-6.76 1.8-8.63 4.76l-51.2 81.2-3.33-15.1c-1.21-5.5-6.66-8.97-12.2-7.76-5.5 1.21-8.98 6.66-7.76 12.2l8.62 39.1c0.582 2.64 2.19 4.94 4.47 6.4 1.65 1.06 3.56 1.6 5.49 1.6 0.734 0 1.47-0.08 2.2-0.24l39.1-8.62c5.5-1.22 8.98-6.66 7.76-12.2-1.21-5.5-6.66-8.97-12.2-7.76l-15 3.3 42.5-67.3 14.6 23.6c2.96 4.79 9.24 6.27 14 3.31 4-2 6-8 3-13z" fill="#1a237e"/>
</svg>
