<?xml version="1.0" encoding="UTF-8" standalone="no"?>
<!DOCTYPE svg  PUBLIC '-//W3C//DTD SVG 1.1//EN'  'http://www.w3.org/Graphics/SVG/1.1/DTD/svg11.dtd'>
<svg style="enable-background:new 0 0 512 512" xmlns="http://www.w3.org/2000/svg" xml:space="preserve" viewBox="0 0 512 512" height="512px" width="512px" version="1.1" y="0px" x="0px" xmlns:xlink="http://www.w3.org/1999/xlink">
<g fill="#1a237e">
	<path d="m409 143c-11.4-11.4-23.8-21.3-37-29.7l14.4-25 16.1 9.32c1.26 0.728 2.64 1.07 3.99 1.07 2.76 0 5.45-1.44 6.94-4 2.21-3.83 0.898-8.72-2.93-10.9l-45.9-26.5c-3.83-2.21-8.72-0.899-10.9 2.93-2.21 3.83-0.898 8.72 2.93 10.9l15.9 9.17-14.4 24.9c-29-14.9-61-23.6-94-24.8v-0.966c18.2-3.72 32-19.9 32-39.2 0-22.1-17.9-40-40-40s-40 17.9-40 40c0 19.3 13.8 35.5 32 39.2v0.966c-54.7 1.98-106 24.2-145 63.1-40.5 41-63 95-63 153s22.5 112 63.3 153c41 41 95 63 153 63s112-22.5 153-63.3c41-41 63-95 63-153s-22-112-63-153zm-177-103c0-13.2 10.8-24 24-24s24 10.8 24 24c0 10.4-6.69 19.3-16 22.6v-22.6c0-4.42-3.58-8-8-8s-8 3.58-8 8v22.6c-9-3.3-16-12.2-16-22.6zm24 456c-110 0-200-89.7-200-200s90-200 200-200 200 89.7 200 200-90 200-200 200z"/>
	<path d="m413 200c-2.32-3.76-7.24-4.94-11-2.62s-4.93 7.24-2.62 11c16 26 25 57 25 88 0 92.6-75.4 168-168 168s-168-75-168-168 75.4-168 168-168c31.2 0 61.6 8.59 88 24.8 3.76 2.32 8.69 1.15 11-2.62 2.32-3.76 1.14-8.69-2.62-11-29-18-62-27-96-27-101 0-184 82.5-184 184s82.5 184 184 184 184-82.5 184-184c0-34-9-67-27-96z"/>
	<path d="m368 171c4.63 4.15 9.08 8.6 13.2 13.2 1.58 1.77 3.77 2.66 5.96 2.66 1.9 0 3.81-0.673 5.33-2.04 3.29-2.95 3.57-8 0.625-11.3-4.54-5.07-9.41-9.94-14.5-14.5-3.29-2.95-8.35-2.67-11.3 0.626-3 2-2 7 1 10z"/>
	<path d="m306 152c-16-5-33-8-50-8-4.42 0-8 3.58-8 8v144c0 2.12 0.843 4.16 2.34 5.66l102 101c1.56 1.56 3.61 2.34 5.66 2.34s4.1-0.781 5.66-2.34c28-28 44-66 44-107 0-12.8-1.59-25.1-4.56-37-0.059-0.333-0.14-0.661-0.242-0.985-3.19-12.4-7.91-24.1-13.9-35.1-0.219-0.518-0.498-1.01-0.831-1.48-5.7-10.1-12.5-19.5-20.3-28-0.236-0.319-0.489-0.629-0.778-0.918-0.157-0.157-0.322-0.3-0.488-0.44-16.4-17.5-36.8-31.1-59.8-39.3 0-1-1-1-1-2zm17 26l-59 59v-25.4l41.8-41.8c6 2 12 5 17 8zm27 20l-86 87v-25.4l72.7-72.7c5 3 9 7 13 11zm22 27l-88 88-13-13 90-90c4 5 8 10 11 15zm15 33l-79 79-13-13 84.4-84.4c3 6 6 12 8 18zm5 38c0 1.6-0.036 3.19-0.091 4.78l-60 60-13-13 71.3-71.3c2 6 2 12 2 19zm-103-132l-25 25v-28.5c8 1 17 2 25 4zm69 222l-15-14 45.2-45.2c-5 22-15 42-30 59z"/>
</g>
</svg>
