<?xml version="1.0" encoding="UTF-8" standalone="no"?>
<svg style="enable-background:new 0 0 489.032 489.032" xmlns="http://www.w3.org/2000/svg" xml:space="preserve" viewBox="0 0 489.032 489.032" height="512px" width="512px" version="1.1" y="0px" x="0px" xmlns:xlink="http://www.w3.org/1999/xlink">
		<path d="m434 40.8c0-3.3-2.7-5.9-6-5.9h-0.1c-3.3 0-6 2.8-5.9 6.1l0.4 35.4-6.9-6.7c-46.7-45.6-108-70.3-174-69.6-65.3 0.7-126 26.9-172 73.6-32.7 33.4-55 75.2-64.5 121-9.2 44.4-6.1 90.3 9.2 133 0.9 2.3 3.2 3.8 5.7 3.8 0.7 0 1.4-0.1 2-0.4 3.1-1.1 4.7-4.6 3.6-7.7-30.3-84.5-10.2-177 52.5-241 89.6-91.7 237-93.4 329-3.8l6.9 6.7-35.3 0.5c-3.3 0-6 2.8-5.9 6.1 0 3.3 2.7 5.9 6 5.9h0.1l49.9-0.6c1.6 0 3.1-0.7 4.2-1.8s1.7-2.7 1.7-4.3v-50.9z" fill="#1a237e"/>
		<path d="m475 162c-1.2-3-4.7-4.6-7.8-3.5s-4.7 4.6-3.6 7.7c30.3 84.6 10.2 177-52.5 241-45.5 46.5-106 69.9-166 69.9-58.6 0-117-22-162-66.1l-6.9-6.7 35.4-0.4c3.3 0 6-2.8 5.9-6.1 0-3.3-2.8-6-6.1-5.9l-49.8 0.5c-3.3 0-6 2.8-5.9 6.1l0.6 49.9c0 3.3 2.7 5.9 6 5.9h0.1c3.3 0 6-2.8 5.9-6.1l-0.4-35.4 6.9 6.7c46 45 107 69.6 171 69.6h2.9c65.3-0.7 126-26.9 172-73.6 32.7-33.4 55-75.2 64.5-121 9-45 6-91-9-133z" fill="#1a237e"/>
		<path d="m380 189c-21.6-52-70.5-86.6-126-90-1.8-0.2-3.5-0.3-5.3-0.3h-0.5c-1.1 0-2.1-0.1-3.2-0.1-19.2 0-38 3.8-55.9 11.2-74.6 30.9-110 117-79.2 191 22.7 54.9 75.8 90.4 135 90.4h2.3 1.3 0.7c1.3 0 2.5-0.1 3.8-0.2 16.4-0.9 32.4-4.6 47.8-10.9 36.1-14.9 64.2-43.1 79.2-79.1s15-76 0-112zm-187-69c4.3-1.8 8.8-3.4 13.2-4.7-7.3 6.7-14 15.2-19.9 25.3-7.3 12.7-13.1 27.5-17.2 43.8h-45c14-27 38-51 69-64zm-14 77h63.3v95.2h-62.8c-3.3-15.2-5.1-31.4-5.1-47.6 0-16 2-32 5-47zm-60 95c-11.9-31.8-11.1-65.6 0.2-95.4 0.3 0 0.5 0.1 0.8 0.1h46.7c-2.9 15-4.4 31.1-4.4 47.6 0 16.4 1.6 32.4 4.7 47.6h-47.1l-2-1zm5 12h45.6c4 15.2 9.6 29.3 16.6 41.7 6.4 11.4 13.7 20.8 21.6 28-37-10-68-35-85-70zm118 74c-16.8-2.6-32.7-16-45.3-38.4-5.9-10.6-10.8-22.7-14.5-35.8h59.8v74zm0-193h-60.5c11-41.5 33.5-70.5 60.5-74.2v74zm123 0h-37.7c-4.1-16.3-9.9-31.1-17.2-43.8-4.8-8.3-10.2-15.5-16-21.5 30 12 56 35 71 65zm-111-74c27 3.8 49.4 32.7 60.5 74.2h-60.5v-74zm0 86h63.3c3 14.7 4.6 30.7 4.6 47.6 0 16.2-1.8 32.4-5.1 47.6h-62.8v-96zm0 181v-74.2h59.8c-3.7 13.1-8.6 25.2-14.5 35.8-13 22-29 36-46 38zm42-9c-1.2 0.5-2.5 1-3.7 1.5 6.4-6.6 12.4-14.7 17.8-24.3 7-12.4 12.6-26.5 16.6-41.7h38.3c-15 29-39 52-69 65zm74-77h-40.7c3.1-15.2 4.7-31.3 4.7-47.6 0-16.6-1.5-32.6-4.4-47.6h40.3c12 32 12 65 0 96z" fill="#1a237e"/>
</svg>
