<?xml version="1.0" encoding="UTF-8" standalone="no"?>
<!DOCTYPE svg  PUBLIC '-//W3C//DTD SVG 1.1//EN'  'http://www.w3.org/Graphics/SVG/1.1/DTD/svg11.dtd'>
<svg style="enable-background:new 0 0 48.085 48.084" xmlns="http://www.w3.org/2000/svg" xml:space="preserve" height="512px" viewBox="0 0 48.085 48.084" width="512px" version="1.1" y="0px" x="0px" xmlns:xlink="http://www.w3.org/1999/xlink">
	<g id="Yes_Button" fill="#1a237e">
		<path d="m24.1 48.1h-0.1c-13.2 0-24-10.8-24-24.1 0.004-13.2 10.8-24 24-24 6.42 0 12.5 2.5 17 7.04 4.54 4.54 7.04 10.6 7.04 17 0.003 6.42-2.5 12.5-7.03 17-4.5 4.6-10.5 7.1-16.9 7.1zm-0.1-46.1c-12.1 0-22 9.9-22 22 0.004 12.2 9.89 22 22 22h0.015c5.89 0 11.4-2.29 15.6-6.46 4.16-4.16 6.45-9.7 6.45-15.6 0.002-5.89-2.29-11.4-6.45-15.6s-9.7-6.3-15.6-6.3z"/>
		<path d="m24 43.5h-0.004c-5.2-0.001-10.1-2.02-13.8-5.7s-5.7-8.56-5.7-13.8c0.07-10.7 8.8-19.4 19.5-19.4h0.002c5.2 0 10.1 2.02 13.8 5.7 3.68 3.68 5.7 8.56 5.7 13.8 0.002 5.19-2.02 10.1-5.7 13.8-3.7 3.6-8.6 5.6-13.8 5.6zm0-36.9h-0.002c-9.6 0-17.4 7.81-17.4 17.4-0.001 4.66 1.81 9.04 5.11 12.3s7.68 5.11 12.3 5.11l0.004 1v-1c4.66 0 9.04-1.82 12.3-5.11 3.3-3.3 5.11-7.68 5.11-12.3 0.002-4.66-1.81-9.04-5.11-12.3-3.2-3.3-7.6-5.11-12.3-5.11z"/>
				<path d="m21 28.6c-0.256 0-0.512-0.098-0.707-0.293-0.391-0.39-0.391-1.02 0-1.41l10.6-10.6c0.392-0.391 1.02-0.391 1.41 0 0.392 0.39 0.392 1.02 0 1.41l-10.6 10.6c-0.2 0.2-0.4 0.3-0.7 0.3z"/>
				<path d="m23 33.9c-0.254 0-0.509-0.097-0.704-0.289-0.392-0.389-0.396-1.02-0.007-1.41l12.3-12.4c0.391-0.392 1.02-0.395 1.42-0.007 0.392 0.389 0.396 1.02 0.007 1.42l-12.3 12.4c-0.2 0.2-0.4 0.3-0.7 0.3z"/>
				<path stroke-linejoin="round" d="m21 27.6" stroke="#1a237e" stroke-linecap="round" stroke-miterlimit="10" stroke-width="2"/>
				<path d="m35.4 21.5c-0.256 0-0.512-0.097-0.706-0.292-0.392-0.39-0.394-1.02-0.002-1.41 0.293-0.294 0.454-0.685 0.454-1.1-0.002-0.415-0.163-0.804-0.459-1.1-0.606-0.605-1.59-0.604-2.19-0.001-0.392 0.393-1.02 0.391-1.41 0.002-0.392-0.391-0.392-1.02-0.002-1.41 1.38-1.39 3.64-1.39 5.02-0.003 0.674 0.67 1.04 1.56 1.04 2.51 0.002 0.948-0.365 1.84-1.04 2.52-0.2 0.2-0.5 0.3-0.7 0.3z"/>
			<path d="m21.1 34.8c-0.948 0-1.84-0.368-2.51-1.04-0.391-0.391-0.391-1.02 0-1.41 0.391-0.391 1.02-0.391 1.41 0 0.293 0.293 0.682 0.455 1.1 0.455h0.001c0.415-0.002 0.805-0.163 1.1-0.457 0.356-0.424 1.02-0.51 1.44-0.152 0.422 0.355 0.507 0.954 0.15 1.38-0.055 0.063-0.113 0.127-0.177 0.19-0.671 0.672-1.56 1.04-2.51 1.04z"/>
			<path d="m19.2 34c-0.256 0-0.512-0.098-0.707-0.293l-6.22-6.22c-0.391-0.391-0.391-1.02 0-1.41 0.391-0.391 1.02-0.391 1.41 0l6.22 6.22c0.391 0.391 0.391 1.02 0 1.41-0.1 0.2-0.4 0.3-0.7 0.3z"/>
			<path d="m21 28.6c-0.256 0-0.512-0.098-0.707-0.293l-4.37-4.38c-0.391-0.391-0.391-1.02 0-1.41 0.391-0.391 1.02-0.391 1.41 0l4.37 4.38c0.391 0.391 0.391 1.02 0 1.41-0.2 0.2-0.4 0.3-0.7 0.3z"/>
			<path d="m13.1 27.8c-0.256 0-0.512-0.098-0.707-0.293-1.38-1.38-1.38-3.64 0-5.02 0.67-0.672 1.56-1.04 2.51-1.04h0.002c0.947 0 1.84 0.369 2.51 1.04 0.392 0.391 0.392 1.02 0.002 1.41-0.391 0.393-1.02 0.391-1.41 0.002-0.295-0.294-0.685-0.455-1.1-0.455h-0.001c-0.415 0-0.805 0.162-1.1 0.456-0.605 0.606-0.605 1.59-0.001 2.2 0.391 0.391 0.391 1.02 0 1.41-0.2 0.2-0.5 0.3-0.7 0.3z"/>
	</g>
</svg>
