<svg xmlns="http://www.w3.org/2000/svg" viewBox="0 0 60 60" width="512" height="512"><g fill="#1a237e"><path d="M30 0C13.458 0 0 13.458 0 30s13.458 30 30 30 30-13.458 30-30S46.542 0 30 0zm0 58C14.56 58 2 45.44 2 30S14.56 2 30 2s28 12.56 28 28-12.56 28-28 28z"/><path d="M31 26.02V15.88a1 1 0 0 0-2 0v10.14a3.995 3.995 0 0 0-2.858 2.86H19a1 1 0 0 0 0 2h7.142c.447 1.72 2 3 3.858 3 2.206 0 4-1.795 4-4 0-1.86-1.28-3.412-3-3.86zm-1 5.86c-1.103 0-2-.898-2-2s.897-2 2-2 2 .896 2 2-.897 2-2 2zM30 9.88a1 1 0 0 0 1-1v-1a1 1 0 0 0-2 0v1a1 1 0 0 0 1 1zM30 49.88a1 1 0 0 0-1 1v1a1 1 0 0 0 2 0v-1a1 1 0 0 0-1-1zM52 28.88h-1a1 1 0 0 0 0 2h1a1 1 0 0 0 0-2zM9 28.88H8a1 1 0 0 0 0 2h1a1 1 0 0 0 0-2zM44.85 13.615l-.708.707a1 1 0 0 0 1.414 1.414l.707-.707a1 1 0 0 0-1.414-1.415zM14.444 44.02l-.707.708a1 1 0 0 0 1.414 1.414l.708-.707a1 1 0 1 0-1.414-1.414zM45.556 44.02a1 1 0 0 0-1.414 1.415l.707.707a.997.997 0 0 0 1.413 0 1 1 0 0 0 0-1.414l-.707-.707zM15.15 13.615a1 1 0 0 0-1.413 1.414l.707.706a.997.997 0 0 0 1.414 0 1 1 0 0 0 0-1.414l-.707-.707z"/></g></svg>