<?xml version="1.0" encoding="UTF-8" standalone="no"?>
<!DOCTYPE svg  PUBLIC '-//W3C//DTD SVG 1.1//EN'  'http://www.w3.org/Graphics/SVG/1.1/DTD/svg11.dtd'>
<svg style="enable-background:new 0 0 470.977 470.977" xmlns="http://www.w3.org/2000/svg" xml:space="preserve" viewBox="0 0 470.977 470.977" height="512px" width="512px" version="1.1" y="0px" x="0px" xmlns:xlink="http://www.w3.org/1999/xlink">
<path d="m463 344h-16.6l-31-90.3c-1.04-3.03-3.89-5.07-7.1-5.07h-22.4l-30.8-75c-1.16-2.81-3.9-4.65-6.94-4.65h-15.2l-29.3-53c-1.99-3.61-6.52-4.94-10.1-2.97l-41.2 22.4-24-11.2c-3.07-1.43-6.72-0.626-8.9 1.96l-40.2 47.7-19-4.6c-3.38-0.816-6.88 0.798-8.45 3.9l-33.3 65.6-26.8 0.219c-3.05 0.025-5.78 1.9-6.91 4.73l-23.2 58.5-9.85-4.51c-1.85-0.847-3.96-0.907-5.85-0.165-1.89 0.741-3.4 2.22-4.19 4.09l-17.7 42.4h-18c-4.14 0-7.5 3.36-7.5 7.5s3.36 7.5 7.5 7.5h456c4.14 0 7.5-3.36 7.5-7.5s-4-6-9-6zm-371 0l9.78-15.7 19.7-3.16 11.2 18.8h-41zm79 0l14.9-103h9.65l-15.3 103h-10zm144-118h-138v-9.59h138v10zm-34 15l15.4 103h-101l15.3-103h71zm31 103l-15.4-103h9.66l14.9 103h-10zm53 0l7.94-15.9 13.2-2.64 8.86 18.5h-30zm47 0l-14.5-30.3c-1.48-3.1-4.88-4.79-8.24-4.12l-22.5 4.5c-2.27 0.454-4.2 1.93-5.24 4l-12.9 25.9h-12.7l-14.9-103h1.51c4.14 0 7.5-3.36 7.5-7.5v-24.6c0-4.14-3.36-7.5-7.5-7.5h-155c-4.14 0-7.5 3.36-7.5 7.5v24.6c0 4.14 3.36 7.5 7.5 7.5h1.51l-14.9 103h-5.58l-18.4-30.9c-1.57-2.64-4.6-4.05-7.62-3.56l-29 4c-2.14 0.343-4.03 1.6-5.18 3.44l-16.5 26.5h-33.6l12.3-29.4 9.98 4.57c1.87 0.855 4.01 0.906 5.92 0.14s3.42-2.28 4.18-4.19l24.3-61.2 14.4-0.118-14.1 30c-1.76 3.75-0.143 8.22 3.61 9.97 1.03 0.482 2.11 0.711 3.18 0.711 2.82 0 5.52-1.6 6.8-4.32l51.6-105 44.4 11.1c0.626 0.161 1.25 0.238 1.87 0.238 3.34 0 6.39-2.25 7.26-5.64 1.03-4.01-1.39-8.1-5.4-9.13l-15.2-3.9 31.8-37.7 8.4 3.92-12.2 6.27c-3.68 1.89-5.14 6.41-3.24 10.1 1.21 2.36 3.5 3.8 5.96 4.04 1.38 0.133 2.82-0.115 4.14-0.795l63.9-34 21.7 39.2h-20.1c-4.14 0-7.5 3.36-7.5 7.5s3.36 7.5 7.5 7.5h47.4l40.1 101c1.1 3.07 3.98 4.98 7.06 4.98 0.837 0 1.69-0.141 2.52-0.439 3.9-1.39 5.93-5.68 4.54-9.59l-5.81-16.3h11.5l27.6 80.3h-22z" fill="#1a237e"/>
</svg>
