<svg xmlns="http://www.w3.org/2000/svg" viewBox="0 0 53.942 53.942" width="512" height="512"><path d="M53.364 40.912c-2.008-3.796-8.98-7.912-9.288-8.092-1.277-.728-2.6-.956-3.722-.646-.844.234-1.532.768-1.995 1.546-1.02 1.22-2.286 2.646-2.593 2.867-2.367 1.603-4.25 1.415-6.294-.63L17.987 24.472c-2.045-2.044-2.233-3.927-.632-6.29.224-.31 1.65-1.575 2.87-2.596.778-.463 1.312-1.15 1.546-1.995.312-1.124.083-2.445-.65-3.732-.174-.296-4.292-7.27-8.086-9.277a4.908 4.908 0 0 0-5.796.873L4.7 3.99C.686 8.003-.767 12.552.38 17.51c.955 4.132 3.74 8.53 8.28 13.068l14.706 14.705c5.762 5.762 11.258 8.657 16.298 8.657 3.7 0 7.157-1.562 10.29-4.695l2.538-2.537a4.91 4.91 0 0 0 .872-5.796zm-2.286 4.382L48.54 47.83c-6.568 6.568-14.56 5.237-23.76-3.96L10.076 29.163c-4.27-4.27-6.877-8.344-7.747-12.105-.995-4.3.244-8.113 3.786-11.655L8.65 2.868a2.925 2.925 0 0 1 3.447-.518c3.293 1.743 7.256 8.454 7.29 8.51.45.788.62 1.61.457 2.197-.1.36-.323.633-.683.835l-.15.104c-.853.71-2.882 2.433-3.308 3.06-.612.905-1.018 1.793-1.23 2.666-.71-1.418-1.286-3.06-1.475-4.88-.057-.55-.545-.935-1.098-.893-.55.057-.95.548-.893 1.098.722 6.953 6.13 11.48 6.36 11.668.024.02.055.03.08.047l10.612 10.61c.044.046.09.084.134.128.036.053.06.11.105.157.188.187 4.703 4.567 11.598 5.283a1 1 0 0 0 .206-1.99c-2.114-.22-3.987-.84-5.55-1.558.766-.23 1.544-.612 2.333-1.147.628-.425 2.35-2.455 3.062-3.308l.103-.15c.202-.36.475-.584.835-.684.59-.164 1.41.007 2.187.45.068.04 6.778 4.002 8.52 7.296a2.917 2.917 0 0 1-.517 3.444z" fill="#1a237e"/></svg>